/* XPM */
static char *_769971459167[] = {
/* columns rows colors chars-per-pixel */
"64 64 5 1 ",
"  c #797979",
". c #646464",
"X c #515151",
"o c #3D3D43",
"O c #2F2F37",
/* pixels */
" ......XXXXXXXXXXXXXXXXXXXoooOooX....XXX....XXXXXXXoooXXXXXXXXX.",
" .......XXXXXXXXoooXXXXXoooooOoo....XXX......XXXXXXXoOooXXXXX...",
"......XXooXXXXooooXXXooOOOOoooooXX........XXXXXXoooOOoooooXXXX..",
"...XXXXoooooXXXooooooooooOOOOOOoX.......XXXXXXXXXoOOOOOooXXXXXXX",
"XXXXXooooOOOOOOOooOOoooooooOOOoooXXX..........XXXXooooXXXXXXXXXX",
"XXXoooOOOooOOOOOOOOoooooooOOoooooXX.........XXXXoooooXXXXXXXXXoo",
"OoooOOOoXXXXXXoooOOOOoooooooooooooXX.......XXXoooOOoOOoXXXXooooO",
"oooooXXXXXXXXXXXXXoooOOoooooooooooooX...XXXXXXXoOOOOoooooXXXooOO",
"oX...          .....XXXooOooooooooOOOOOOOOoOOOooooooooooOOOOOOoo",
"ooXXXX.    ....XXXXXXXXXooOOooOOOOOOOOOoooooOOOOooooOOOOOOOOoooo",
"oooX....  .......XXXooooooooOOOOOOOOooXXXXXXXoooooooooOOOOooOOoo",
"oXXXX...  ......XXoooOOooooooOOOoooXXXXXXXXXXXXXXXoooOOOoooOOooo",
"XXXXXXX. ....XXooooXooXXXoooooXXXX..  ..        ..XXXXXX...XXXXo",
"ooXXXXXX ..XXXXXooooXXXXoOOOOooXXXXXX.....     .....XX......Xooo",
"ooooXXXX .XXXooXXXoooooOOOOooooooXXXXX.....   ........X...XXXXoo",
"ooOoooXX.XXXXXXXXooOOoooooooooooXXXX........  .....XXXXXX..Xoooo",
"OOoooooXXXXXoooOOOOOOOooooooXX.............. ....XXXXXXXXXXooooo",
"oOOOoXXXXXXXXoooOOOOooooOoooooXX............ ...XXXXXX..XXXXXXoo",
"OOOOOOooooooooOOOoooooOOoooooXXXX....XX..... .....XXXXXXXXXXoooO",
"OOOOOOOOooooOOoooooooooOOOooXXX........XXX.. ..........XXXoOOOOO",
"      .....XX......X.XXXoOOooXXX........XXX. ...XX...XXXX.....  ",
"    .....XXX........XXXXoOOOoXXXXX....XXXXXX .XXX.....XXXXXX... ",
"  ....XXXXXXXX...XXXXXXoOOOooooXXXXXXXXXXXXX.XXX....XXXXXXXXXX..",
" ......XXXXXXXX...XXXoooOOOoooXXXXXXXXooooXX.XXXXXXXXXooooXXX...",
" ..........XooXXXXXoXXoOOOooooooXXXXXoooooooooooooooOOOOoXXXXXX.",
" .........XoooooXXXXoOOOOOooooooooXXXXXooooOOOooooOOOOOOOOoXXXXX",
"........XXXXXXooooOOOOOoooOOOooXXooXXXXXXoooOOOOOOOOOoooooooooXX",
".....XXXooXXoooooooOOOOOOooOOOOOoXXXXXXXooooooOOOOOOOOooooooXXXX",
"..XXXXXXXooooooooooooOOOX.      ........XXXXXoooOOOOooooooXXXXXX",
".XXXXXXoooooooOOOoooOOOoXX..   ....XXXXXXXXXXXoOOOoooXXXXXXXXXXX",
"XXXXXooooOooOOOOOOoooooo....  ....XXXXXXXXooooooooooooXXXXXooooX",
"XXXXooooooOOOOOoooOOOoooX...  ......XXXXXoXXooooooooooooXXXXoooo",
"XXXXXXoooXXXXooooooOOOooXX.. .........XXX......XXooOOOooooooooXX",
"XXXooOOXXXXXXXooOOoooooXXXX. .....XXXXXX........XXooOOOOoooOOooX",
"XXooOOoXXXXXoOOoooooooXXXXX.....XXXXXXXX.....XXXXXooooooOOooXXXX",
"XXXXooooXXoOOOOOoooXXXXXXXXX...XX...XXXX...XXXXooXooOooooooooXXX",
"oooooOOOOOOOoooXXXXX...XXXXX..XX...XXoooX...XoooooOOOOoooOOOOooo",
"oooOOOOOOooooXXX......XXXXXX..XXXXXXooooooXXXXoooOOOooooooOOOOOO",
"ooooooooooOOooXXX....XXXXXXX.XXXXXXXXXoOOOOOoooOOooooXXXXXXXXXoo",
"XXooooXXXooOOoooXXXXXXXXXXoo.XXooXXXXoooOOOOOoOooXXXXXXX....XXXX",
"...XX...XXXXXXXXooooXXoooooOOoOOOooooooOOOOoooooXXX......       ",
"..XXXX......XXXXooooooXXooOooooOOOOooOOOOOoooOooXXXXX...     ...",
"....XXXX...XXXXooOOooooXXXoooooooOOOooooXXXXooOoXXXX....   .....",
"......XXXXXXXXXoOOooXXXXXXXXoooooooooooXXXXXXXOoXXXXXX..  ......",
".XXXXXXXXXXXXXXoooX.      .   ....XXoooXXooXXoOOoXXXXXX.  ......",
"..XXXXXXXXXXXXooXXX     ...........XXXooXXoooOOOoXXXXXX. .......",
".....XXXXXXooooXXX.  ...............XoooooOOOOOOOoXXXXXX .......",
".......XooOOOooooX. ..............XXXXXooooOOOooooooXXXX .......",
"....XXXXXXoOOOOOOo .............XXXXXXXXoOOoooOooXXXXXXX.....XXX",
"..XXXXXXXoooOOOOoX ............XXXXXXXooOOooooooooXXXXXX...XXX..",
"XXXXXXXXoooOOOoooo.XX............XXXXXXoooooOOooooooXXXXX...XXXX",
"XXXXXXoooooooOOoXXXX..XXX.........XXXoooooOOOOOoooooooXXXXX...XX",
"OOooOOOOOOoooooooXXXXXXX.......XXXXoooooOOOOooooOOOOooooooooooOO",
"ooooooOOOOOOOOooooXXXX......XXXXXoooooOOOoooooooooOOOOOOooooOOOO",
"XXXXooooooooOOOOOooXXXXXXXXXXXXXXXXXoOooXXXXXXXXXXXoooOOOOooooXX",
"XXXXXXXXXXoooooOOOOooXXXXXXoooXXXXXoooXXXXXXXXXXXXXXXXXoOOOoXXXX",
"        ......XXXXooooOOooOOOOoooXX....   ....XXXXXXXXXX..      ",
"     ...........XXXXXXXooOOOOOOOooXX..  .....XXXXXXXXX......    ",
"   ........XXXXXX...XXXXooooOOOOOoXXX.   .........XX..........  ",
"  ..........XXXXXXXXXXXXooOOOOOoooXXX. .........XXX............ ",
"    ......XXXX....XXXXoooooOOOOooXXXX. .....XXXXXXXXXX...XXX....",
"      ...XXX........XXXooooooOOOoXXXX. .......XXXXXXX...........",
"  ..........X....XXXXoooooXooOOooXXXXX...........XXXXXXX....XX..",
" ..........XXXX...XXXXooXXXooOooXXXXXX..........XXXXXXXXX..XX..."
};
