/* XPM */
static char *_769971483946[] = {
/* columns rows colors chars-per-pixel */
"64 64 11 1 ",
"  c gray50",
". c gray56",
"X c #747474",
"o c #686868",
"O c #676767",
"+ c #77E7D1",
"@ c #1ED0D6",
"# c #239698",
"$ c #8DADB1",
"% c #D5FFF6",
"& c #A2A2A2",
/* pixels */
"      ........     XXX   XXX   XX    XXX   XXXXX    ..  XXXX    ",
"   ........  ...  X  XXX  XXXX   XXooooXXXooX  XX ...  XXX      ",
" ......   ..        XXXXXX..... XooXXXooooXXXX    XXX   XXXXXX  ",
"     ...              XXX....     XXXXXXoXXXXXXXX  XXX     XXXX ",
"     XXXX       X  ...      XXXX..    ..       XXXXXooXXX    XXX",
"....X  XXXXX  XXXXXX ..   XXXXX  ...   ...  XXooXXoooXXX  XXXXX ",
" ..   XXXXX     XXXXXX  XXXX   .... XXXX   XXXXXoooXXX  XXX  .. ",
".....   XXXXX  XOOOOOOXXXXXXXX  XX    XXXXX   XXXooooXX  XXX  ..",
"     XXXXXoooooOO++@@#XXXXooXoooooXXXXXXXXXXXX  XXXoooXXXXXXXX  ",
"   XXXXXoooooXXo++++##. XXXXoooXXXooXXXXXXXXXXXXXXOOO@@@OXXXXXX ",
" ...  XXXXXoooX.@+@##$X   XXXXoooXXXXX   XXXX  XOO+%%%+@#OXX    ",
".. XXXXXXXXXXXXX.##@$X   XXXXooOOOOOO   XX    OO+%%%%+@###XXX   ",
"    XXXX     XXXX$$$  XXXXX OOO@%%++@OO      O@@@@++@###@.X  XX ",
"  XXXX  XX  XXX   XXXXXX   OO@+%%++@##$. XX   .##@@##@@$.oXXXX  ",
"XX     .......XXXXXX ...  O.@++++####$.XXX XX ..$$$$$$.XoX    XX",
" XXX....   .....    ...  XX .$@###@$$.      ..........XoooXX    ",
"XXXXXX    ...    XXXX  XXXX  .$$$$$..   .....     ...   XXXXXXX ",
"   XXXXX    ..XXooooXXXX    XXXX     .......... ..  .. XX  XXX  ",
"  XX   XXXX     XXoXXXXXXXX       ....    ......    XXX   XX    ",
"      XXXX    XXXoooXXXOOOOXX .... .    .....    XXXXXXXX  ...  ",
"     ....  XXXXX   XXXO@++@OXXX ... XXX   XX  @+#XooXXooXXXX ...",
"  ........  X  XXXXXOO@++++@OX X     XXXX   +++@##oXXXXoooX ... ",
"     ...        XXOO@+++%%%+@OO   XXXXXXXX+%%%++@#.XXXXXXXXXXX  ",
"    .......    OOOO++++%%%+++@@O    XXooo+%%%+@@##.XXXXXXXXXXXX ",
" XX    ..     O@@++%%%++++++@@##@.....XXo.++@@####.   XXXXX     ",
"XXXXXX  XX   O@@++%%++++@@@@#####@.    XXX.++####$XXX      XX   ",
"  XXX     XXX  $@++++@@@@@#####@$$X  XXoooX.$@@#$XX    ...  XXX ",
"    XXXXXXXXXXXX.$@+++@@####@@$$X  XXXXXoooXX$$$    ..... XXXX  ",
"XXXXXXXXXXXXoooXXX.&$&$$$$$$$$  XXXX   XXX      XXXXXX        XX",
" XXXXXXoooooooooooXXoooXX   X X  XXXX XXXXXXX    XXXXXXX        ",
"   XXXXXo+++OXXooooooooooXXXXXXX        XXXXXXXXXXXX            ",
" XX  XOO+++@@OoooooXXXXXXooXXX    XXXXOOO XXXXXXXX      XXXX    ",
"   XOO+%%%@##@XXooooXXXX  XX  .....XOO++@O XX   XXXXX    XXXXX  ",
"  XO@+%%%++@##$XXXXXXXXXXX........XO+++++@OO   XXXXX  XXXXXXX   ",
"   X&@@+++@##$X ... XX      ...XXOO++%%%+++@OX          XXX     ",
"  .. &##@@#$$  ..  ..         XOOO+%%%%%%+++@OXXXXXX      XX    ",
"      $$$$$   X ..      ..  XOO++%%%%%++++@@##@XXX  ....        ",
"      ...  XX  XXX  XX   ...O#@@++%%++++@@#####@.     ...       ",
"X   ...  ...    XXXXX XXXX  ..###@@++@@#####@@$.  .. ..    XXXXX",
"XXXX       XXX XOOOOO   X XXXX.$##@@@#####@@$.   XX     XooooXXX",
"XoX   X  XXXX   @@%%+OOXoXXXXXXX.$.$$$$$$$$.  XXXX  X    XXoXX  ",
"XXooXX          #@+%%@ooooooXXooX  X   XXXX XX  XXXX XXXXXoooXXX",
"  XXXXXXXXXXXX   #@+@#XXXXooooXXXX            ........   XX   XX",
"XXXX XXXXXXXXXXX  @##.. XXXXX          X    ...XOOOO....        ",
"         XXXXXX    ... .....      ... XXXXXXXXOO@@##OXXXXXX  ...",
" X  XXXXooX  XXXXX  .....   ..  ....   XX XXOO@+++@@#OXXXX  ..  ",
"  XXXooooXXXXXXXX  .......   X XX .XX    XXO@+++++++@#OOXXXXXX  ",
"XXX   XoooXX  X      ...   XXXX     XXoOXOO@+++++++@@###OXXX XX ",
" XXXXXXXXX   XXX   ...   XXXoooXXXXo@++%%+++++++++@@#####@.XX   ",
"XXXXX  X  XX        ....     XXXXo@@++%%%%%++++++@######@.ooXXXX",
"XX    XXXXXoXX  .........      X@@++%%%%%%+++++@####@@#@.XXoooXX",
"        XooX  OOOOOO..    X   XX.@@++%%+++++@@#####@@$$.XXoooXXX",
" .....  . XXOO+%%%%+OO  XXX      .&@++++++@@@####@@$$.       .. ",
"  ...  ... O@+%%%%+++#OX XXX    XXX&&@++@@@#####@$$.X    X......",
".......  XX $@@@++++@###.   XXXXXX  ..@#######@$$.  XXXXXXX     ",
"          XX $$@@##@###..XXXXXXXXXXX  .&@##@@$$       XXXXXX .. ",
"   XXXXX       $$$$$$$....XXXXXXXX  XXXX.&$$$XXX     .......  ..",
"    XX XXXXX    ........     XXX      XXXXX     ....   ........ ",
" XXXXoooXX  XXX   ...     XXXXXXXXXX         ...... ..   ....   ",
"  XXoXXX            .. XX   XXXXXX    .   XXX           .. XXXX ",
"XX       X XXXXXXXX      XXXXX      ....     XXXX    XXXXX    XX",
"      XXXXX  XXXX XXX XXXXooooXX  ..   .....  XX  XXXX    XX    ",
"    XXXX    XXX    X    XXXXoXXXXX    ....          XXX         ",
"          XX               XXXXX                      XX        "
};
