/* XPM */
static char *_769971525634[] = {
/* columns rows colors chars-per-pixel */
"64 64 6 1 ",
"  c #3B2713",
". c #4D3317",
"X c #2E1C0A",
"o c #311E0B",
"O c #553A1F",
"+ c #2E1608",
/* pixels */
" .    XXo .O  o ..oXXoo OO  oXXoo ooXX+o    .    oXo   .   o    ",
"..o  oXXo .O  o .. X+o  O.  ooXoo oooX+X    .. o  XX   .   oo   ",
". o oXXX  O. oo  . o+X  O.   oXo  oooX++ o o.. oo X+       oo   ",
".  ooXXo .O  oo o o +X  ..   ooo   ooo++oo o .. ooX+  .     o   ",
".  oX+Xo OO  o oo oo+X ..    oo    oooX+o oo .. oo++ .. o   oo .",
"  ooX+X .O. oo o  oX++ ..  o oo     ooX+X oo .  oX++ .. o   oo .",
"  oXX+X .O  oooo   X++o..  oo o   o ooo+Xoo ..  oX+X .  oo  oo .",
"  oX++o .. oXooo   oX+o..  oo     oooooXXoo .   XX+X   ooo  oX  ",
"  oX++oo..ooXXoo o oX+ .    o   o oo oo+Xoo    oXXXXo  o o   Xo ",
"  oo+Xoo .oooXoooo  X+o.  .  o  oo o oo+Xo     XXXXXo oo o   oX ",
"   oXXoo  o ooXooo  XXo   .. o ooo   oX+oo .  o+XoXXo oo   o oXo",
"   oXXo o   ooXXoo  XXX   ..   oXo    XXoo .  o+ooXXooo  . o  Xo",
".  o+Xo o    oXXo   oXX  ..    XXo    XXoo..  X+ oXXooo  .oo  XX",
".   +X  o    ooXo   oXXo ..   oXX    oXXo .   ++ ooXoo   .o   oX",
".. oX+o   o   oX   oo+Xo..  o oXo  . oXoo     +X  oXXo  ..    oo",
".. oo+X   oo  oX   oo+XX..  ooXXo  .oooooo    Xo  oXXo  ..  o oo",
" . ooXXo  oo oXo  ooo+XX . o oXX   OoXoo o   oX o oXXo  .   oooo",
" .oooXXo  oo XXo  ooX+Xo . o oXo  .OoXoo     oo o ooXX  .   oooo",
"  oo oXX   ooXX . ooXXXo  .  XX   OOoXX    o Xooo ooXXo .    oo ",
"  oo oXX   oXXo . oooXX   . oXo  .O. XX .  ooXoooooooXo ..   oo ",
"   o  XXo   XX  . o oXo     XXoo O.  oXo..  oXXooo ooXX O.    o ",
"   oo oXo   oX  .   oXo     XXoo O.  oXo .   XXoo  ooXXoOO    o ",
"  . o oXX    Xo ..  oX     oXo o.O    Xo ..  oXoo   ooXo.O.    o",
"  .   oXXo   Xo ..  oo o   XXo o.O    oX ..  oXXo   ooXo O.    o",
"  .    XXo o oo  .   ooo  oXoo  ..  o  X  . ooXX    o XX .O     ",
"  . o  oXX o  o  .   ooo  ooo    .  oo o  . o Xo  o   oXo O.    ",
"o ..o  oXXo   oo ..   oo oXoo o  ..  o    ..  X   oo  ooo ..    ",
"oo..X  oXXo    o ..   oo oXo  o. ..  o    ..  o   oo  ooo  .    ",
" o .Xo oX+o    o  .  o oooXX   .  ..   o  ..  o  ooo ooo       o",
" o .XoooX+o o     .  o oooXX   O  ..  oo   .   o o o ooo o     o",
"  o XXoo++ooo       oo o ooXo .O  ..  oo         o  oooooo .  oo",
"  ooXXoo+Xooo  .    ooo  ooXo .O. .   Xo  . o       ooXooo..  oo",
"o oooXoX+Xoo  .. o   oo  ooXX  O.    oX  .. oo    o ooXXo ..  o ",
"o  ooXXX+ooo  .  o   o  oooXXo .O    XX  .  oo  . o  ooXo .   o ",
"   ooXX+Xoo  .. oo o    oXoXXo  O.  oXX  . ooo  .    ooXX     o ",
"   oooX+Xoo  .. o  o    oXooXX  ..  oXo    ooo  ..   ooXXo      ",
" o oo XXooo  O. o o    oooooXXo ..  XXo  . oXoo .. o  oX+o o    ",
" oooo oXo o .O    o    oXo ooXo .   XX   . oXoo  . oo oX+Xoo    ",
" oooo  X    OOo  oo   oXXo ooXoo    oXo ..o +oo  .. o oo+Xooo   ",
"  oo   o    O.o  oo o oXoo  oooo   ooXo . o +Xo  .O   oo++ooo   ",
"  oo   oo   .. o o  o XXo   oooXo  ooXX   o ++oo  O.  o ++ooo  .",
"  o    oo   .  ooo   oXoo   oooXX   ooXo o  ++oo  OO    X+oooo .",
"      oo o  .  ooo   ooo  o ooo+Xo  o Xo   oX+Xo  OO    X+Xo o..",
"      oo oo     oo   ooo  ooooX+Xo    XX   XX+Xo  .O   oX+Xo o..",
"   . ooo  o  o  oo  oo o  Xooo++oo .  oX   XXX+oo  .   oo++o  . ",
"   . oo   o  o  o   oo   oXXoo++o  .   Xo oXoX+Xo  .   oo++X  . ",
"  O. oX o  o o.     oo   oXXoX+Xo  O   oo oXoo++o     oooX++    ",
" .O ooXoo  o  .      o   ooXoX+X  .O   o  Xo o++oo    oooX++o   ",
" OO ooXo      ..   . oo  o XX++o  OO o   oX  oX+oo   .oooo+Xo   ",
" OO oooX  o   ..   . oo    oX+Xo  O. o   oo   X+o    .o oo+Xoo  ",
".O. o oXo o    .  ..  o    oX+o  .O oo   o  o XXo   ..  ooXXo   ",
".O  o  Xo oo   .. ..  o   o ++o  O. ooo     ooXXo   ..  ooXXo   ",
"..    oXX  o    . .       o +Xo .O  oXo    o oX+ o  .    oXX  . ",
" .    oXXo oo   ...  o  .   +X  .. oXXoo   o oX+   .. o  oXo  . ",
" ..  oooXoooo   ..   o  .. oXX  .. oXo o   ooXX+o  .  oo oX  .  ",
" ..  o oXooooo  ..  o   .. oXX  .  XXo    oooXo+o  .  oo oo  .  ",
"  .  o oXXoooo   .  o    . o+Xo . oXXo    ooXooXo      o o  ..o ",
"  . oo  XXoooo   . oo    .oX+Xo   oX+oo   ooXooXX        o  . o ",
"  . o   XXo oo.    Xo  o  oX+Xoo  oo+oo  oooo oXX   .   oo    oo",
"   .o   XX  o ..  oX   o   XXooo  oo+Xo  oooo ooXo  ..  o     oo",
"   .   oXo     .  oX  oo . oXooXo  o++oo ooo  ooXo   .         o",
"   . o oXo  .  .  XXo oo O oXXoXo  o++Xooooo  o ooo  ..   o    o",
"     ooXX  ..o  . XXo o  O. XXXXo  oX+Xoo oo.   ooX   .   o     ",
"      oXo  . o  . oXXoo .O. oXXXoo oX+Xo  o .    oX   .   oo    "
};
